<?xml version="1.0" encoding="UTF-8"?>
<svg width="498px" height="179px" viewBox="0 0 498 179" version="1.1" xmlns="http://www.w3.org/2000/svg" xmlns:xlink="http://www.w3.org/1999/xlink">
    <title>编组 11</title>
    <defs>
        <polygon id="path-1" points="0.000290579281 5.68434189e-14 175.235792 5.68434189e-14 175.235792 154.796819 0.000290579281 154.796819"></polygon>
        <linearGradient x1="100%" y1="89.0165117%" x2="0%" y2="10.9834883%" id="linearGradient-3">
            <stop stop-color="#3130F4" offset="0%"></stop>
            <stop stop-color="#1378FF" offset="100%"></stop>
        </linearGradient>
        <path d="M33.6036906,51.5428192 C33.6036906,51.5428192 52.3006906,7.87481922 97.3536906,0.86981922 C124.510691,-3.35318078 154.293691,8.49781922 166.446691,21.3738192 C173.252691,28.5858192 178.238691,39.2258192 173.146691,47.7348192 C170.799691,51.6568192 168.563691,53.5798192 165.463691,56.5828192 C151.538691,70.0718192 52.1616906,99.6138192 42.2906906,109.983819 C30.5446906,122.323819 33.0586906,135.998819 41.5046906,154.796819 C41.5046906,154.796819 -10.9713094,131.097819 2.08769058,95.8138192 C2.08769058,95.8138192 6.35969058,80.4218192 50.4946906,64.8928192 C94.6296906,49.3628192 118.391691,40.3578192 123.466691,36.4228192 C130.318691,31.1098192 125.415691,20.2128192 110.245691,21.9828192 C89.1976906,24.4398192 33.6036906,51.5428192 33.6036906,51.5428192" id="path-4"></path>
        <linearGradient x1="87.8027619%" y1="0%" x2="33.3691103%" y2="93.6033378%" id="linearGradient-6">
            <stop stop-color="#0B56FF" offset="0%"></stop>
            <stop stop-color="#00EDFF" offset="100%"></stop>
        </linearGradient>
        <linearGradient x1="92.0262978%" y1="10.9834883%" x2="41.6092549%" y2="85.6432091%" id="linearGradient-7">
            <stop stop-color="#00EDFF" offset="0%"></stop>
            <stop stop-color="#0B56FF" offset="100%"></stop>
        </linearGradient>
        <path d="M77.8821013,153.927 C50.7251013,158.15 20.9421013,146.299 8.78910134,133.423 C1.98310134,126.211 -3.00289866,115.571 2.08910134,107.062 C4.43610134,103.14 6.67210134,101.217 9.77210134,98.214 C23.6971013,84.726 123.074101,55.183 132.945101,44.813 C144.691101,32.473 142.177101,18.798 133.731101,0 C133.731101,0 186.207101,23.699 173.148101,58.983 C173.148101,58.983 168.876101,74.375 124.741101,89.904 C80.6061013,105.434 56.8441013,114.439 51.7691013,118.374 C44.9171013,123.687 49.8201013,134.584 64.9901013,132.814 C86.0381013,130.357 141.632101,103.254 141.632101,103.254 C141.632101,103.254 122.935101,146.922 77.8821013,153.927 Z" id="path-8"></path>
    </defs>
    <g id="页面-1" stroke="none" stroke-width="1" fill="none" fill-rule="evenodd">
        <g id="画板" transform="translate(-156.000000, -982.000000)">
            <g id="编组-11" transform="translate(155.999709, 982.000000)">
                <g id="编组-4" transform="translate(0.000000, 0.000000)">
                    <g id="编组-4" transform="translate(0.000000, 0.000000)">
                        <g id="编组-15备份">
                            <g id="编组">
                                <mask id="mask-2" fill="white">
                                    <use xlink:href="#path-1"></use>
                                </mask>
                                <g id="Clip-2"></g>
                                <g id="路径-3">
                                    <mask id="mask-5" fill="white">
                                        <use xlink:href="#path-4"></use>
                                    </mask>
                                    <use id="蒙版" fill="url(#linearGradient-3)" xlink:href="#path-4"></use>
                                    <path d="M156.924391,-10.5754808 C173.794311,6.48819166 180.255065,23.2480133 176.306652,39.7039842 C171.824517,58.3843744 52.9040623,84.627559 47.6314657,103.43075 C45.1175121,112.396038 47.883645,120.500495 59.5497081,126.804996 C66.5418101,130.583624 76.9829296,133.550784 87.1924058,132.845119 C97.2278405,132.151484 106.973684,128.70743 114.23371,125.395978 C122.517488,121.617571 138.16115,111.579154 161.164695,95.2807256 C161.964826,94.7138181 163.185058,93.8464159 164.825391,92.6785192 C157.563154,106.130499 151.033287,115.503266 145.235792,120.796819 C139.438296,126.090373 130.961463,132.441017 119.805293,139.848751 C81.2147278,153.322198 56.3188009,157.962617 45.1175121,153.770009 C33.9162233,149.577401 25.5922772,132.797648 20.1456737,103.43075 C21.3007645,93.6537562 26.835631,85.9443702 36.7502735,80.3025917 C46.6649159,74.6608132 70.0727194,64.7315787 106.973684,50.5148883 L150.252736,27.5212631 C153.764753,24.5171276 155.988638,20.3433732 156.924391,15 C157.860143,9.65662681 157.860143,1.13146655 156.924391,-10.5754808 Z" fill="url(#linearGradient-6)" opacity="0.296307231" mask="url(#mask-5)" transform="translate(98.787806, 72.343524) scale(-1, -1) translate(-98.787806, -72.343524) "></path>
                                </g>
                            </g>
                            <g id="路径-2" transform="translate(53.193289, 23.424519)">
                                <mask id="mask-9" fill="white">
                                    <use xlink:href="#path-8"></use>
                                </mask>
                                <use id="蒙版" fill="url(#linearGradient-7)" xlink:href="#path-8"></use>
                                <path d="M133.731101,0 C150.601022,17.0636724 157.061776,33.8234941 153.113363,50.2794649 C148.631228,68.9598551 29.7107731,95.2030398 24.4381764,114.006231 C21.9242228,122.971519 24.6903558,131.075975 36.3564189,137.380476 C43.3485209,141.159105 53.7896404,144.126264 63.9991166,143.4206 C74.0345513,142.726964 83.7803948,139.282911 91.0404213,135.971459 C99.324199,132.193052 114.96786,122.154634 137.971406,105.856206 C138.771537,105.289299 139.991769,104.421897 141.632101,103.254 C134.710622,117.278954 128.180756,126.65172 122.042503,131.3723 C119.447705,133.36781 116.762986,136.141411 113.332395,138.719496 C110.209183,141.066586 104.635719,144.968164 96.6120036,150.424232 C58.0214385,163.897679 33.1255116,168.538098 21.9242228,164.34549 C10.7229341,160.152882 2.39898793,143.373129 -3.04761554,114.006231 C-1.89252477,104.229237 3.64234181,96.519851 13.5569842,90.8780725 C23.4716266,85.236294 46.8794301,75.3070595 83.7803948,61.0903691 L127.059447,38.0967439 C130.571464,35.0926083 132.795348,30.918854 133.731101,25.5754808 C134.666854,20.2321076 134.666854,11.7069473 133.731101,0 Z" id="路径-3" fill="#FFFFFF" opacity="0.159406795" mask="url(#mask-9)"></path>
                            </g>
                        </g>
                        <g id="编组-7" transform="translate(255.000291, 34.000000)">
                            <g transform="translate(0.000000, -0.000000)">
                                <path d="M2.10311085,9.11479404 L20.0133047,9.28379652 C21.1177166,9.29448915 22.0046159,10.1981631 21.9946155,11.3025814 L21.9313849,18.1012325 C21.9213836,19.2057568 21.0176642,20.092821 19.9131425,20.0825484 C19.9130521,20.0825476 19.9129617,20.0825467 19.9128738,20.0822746 L2.00267995,19.9132722 C0.898268109,19.9025795 0.0113687928,18.9989056 0.0213691166,17.8944873 L0.0845997495,11.0958362 C0.0946010952,9.99131192 0.998320433,9.10424771 2.10284216,9.11452028 C2.10293258,9.11452112 2.10302299,9.11452196 2.10311085,9.11479404 Z" id="路径-7" fill="#000000" fill-rule="nonzero"></path>
                                <path d="M0,30.9437656 L0,38.3774622 C-7.52907669e-16,39.4820317 0.8954305,40.3774622 2,40.3774622 L10.0279722,40.3774622 L10.0279722,40.3774622 L10.0279722,108 C10.0279722,109.104569 10.9234027,110 12.0279722,110 L24.3924852,110 C25.4970547,110 26.3924852,109.104569 26.3924852,108 L26.3924852,99.9616772 C26.3924852,98.8571077 25.4970547,97.9616772 24.3924852,97.9616772 L22.2221678,97.9616772 L22.2221678,97.9616772 L22.2221678,30.9437656 C22.2221678,29.8391961 21.3267373,28.9437656 20.2221678,28.9437656 L2,28.9437656 C0.8954305,28.9437656 -3.57315355e-16,29.8391961 0,30.9437656 Z" id="路径-8" fill="#000000"></path>
                                <path d="M31.2750338,29.3621754 L31.2750338,36.3673987 C31.2750338,37.4719682 32.1704643,38.3673987 33.2750338,38.3673987 L111.199114,38.3673987 C112.303683,38.3673987 113.199114,37.4719682 113.199114,36.3673987 L113.199114,29.3621754 C113.199114,28.2576059 112.303683,27.3621754 111.199114,27.3621754 L33.2750338,27.3621754 C32.1704643,27.3621754 31.2750338,28.2576059 31.2750338,29.3621754 Z" id="路径-9" fill="#000000"></path>
                                <path d="M36.7773864,9.81211083 L36.7773864,15.9002322 C36.7773864,17.0048017 37.6728169,17.9002322 38.7773864,17.9002322 L89.8035031,17.9002322 C90.9080726,17.9002322 91.8035031,17.0048017 91.8035031,15.9002322 L91.8035031,9.81211083 C91.8035031,8.70754133 90.9080726,7.81211083 89.8035031,7.81211083 L38.7773864,7.81211083 C37.6728169,7.81211083 36.7773864,8.70754133 36.7773864,9.81211083 Z" id="路径-9备份" fill="#000000"></path>
                                <rect id="矩形" fill="#000000" x="57.2893757" y="0" width="14.8952873" height="32.5834409" rx="2"></rect>
                                <path d="M91.3237999,49.5933516 L41.685111,49.5933516 L41.685111,49.5933516 L41.685111,92.6194684 C41.685111,99.2468854 47.057694,104.619468 53.685111,104.619468 L103.3238,104.619468 L103.3238,104.619468 L103.3238,61.5933516 C103.3238,54.9659346 97.9512169,49.5933516 91.3237999,49.5933516 Z" id="路径-10" stroke="#000000" stroke-width="12"></path>
                                <path d="M105.574378,9.44764364 L105.574378,25.6238864 C105.574378,26.7284559 104.678947,27.6238864 103.574378,27.6238864 L96.5691545,27.6238864 C95.464585,27.6238864 94.5691545,26.7284559 94.5691545,25.6238864 L94.5691545,9.44764364 C94.5691545,8.34307414 95.464585,7.44764364 96.5691545,7.44764364 L103.574378,7.44764364 C104.678947,7.44764364 105.574378,8.34307414 105.574378,9.44764364 Z" id="路径-12" fill="#000000" fill-rule="nonzero"></path>
                                <path d="M45.9932287,29.9286637 L45.9932287,58.0272317 C45.9932287,59.1318012 45.0977982,60.0272317 43.9932287,60.0272317 L36.9880053,60.0272317 C35.8834358,60.0272317 34.9880053,59.1318012 34.9880053,58.0272317 L34.9880053,29.9286637 C34.9880053,28.8240942 35.8834358,27.9286637 36.9880053,27.9286637 L43.9932287,27.9286637 C45.0977982,27.9286637 45.9932287,28.8240942 45.9932287,29.9286637 Z" id="路径-12" fill="#000000" fill-rule="nonzero" transform="translate(40.490617, 43.977948) scale(1, -1) rotate(-46.000000) translate(-40.490617, -43.977948) "></path>
                                <path d="M144.743276,43.4930724 L144.743276,78.0912793 C144.743276,79.1958488 143.847845,80.0912793 142.743276,80.0912793 L135.163814,80.0912793 C134.059244,80.0912793 133.163814,79.1958488 133.163814,78.0912793 L133.163814,43.4930724 C133.163814,42.3885029 134.059244,41.4930724 135.163814,41.4930724 L142.743276,41.4930724 C143.847845,41.4930724 144.743276,42.3885029 144.743276,43.4930724 Z" id="路径-12" fill="#000000" fill-rule="nonzero" transform="translate(138.953545, 60.792176) scale(1, -1) rotate(-46.000000) translate(-138.953545, -60.792176) "></path>
                                <line x1="41.685111" y1="76.1882267" x2="103.3238" y2="76.1882267" id="路径-11" stroke="#000000" stroke-width="10"></line>
                                <path d="M218.876953,24.2048418 L136.850452,24.2048418 L136.850452,24.2048418 L136.850452,35.1323905 C136.850452,41.7598075 142.223035,47.1323905 148.850452,47.1323905 L230.876953,47.1323905 L230.876953,47.1323905 L230.876953,36.2048418 C230.876953,29.5774248 225.50437,24.2048418 218.876953,24.2048418 Z" id="路径-10" stroke="#000000" stroke-width="10"></path>
                                <polygon id="路径-11" fill="#000000" fill-rule="nonzero" points="139.655854 32.5834409 228.84716 32.7102852 228.834624 39.0031545 139.643318 38.8763103"></polygon>
                                <g id="编组-4" transform="translate(125.675431, 0.000000)" fill="#000000">
                                    <path d="M2.00909238,3.59961671 L114.844004,3.72166157 C115.948573,3.7228563 116.843035,4.61925479 116.84184,5.72382365 L116.83509,11.96433 C116.833895,13.0688989 115.937497,13.9633603 114.832928,13.9621656 L1.99801601,13.8401207 C0.893447157,13.838926 -0.00101430212,12.9425275 0.000180425159,11.8379587 L0.00693030151,5.5974523 C0.00812502879,4.49288345 0.904523523,3.59842199 2.00909238,3.59961671 Z" id="路径-13" fill-rule="nonzero"></path>
                                    <rect id="矩形" x="26.0703081" y="0" width="14.8952873" height="16.7571982" rx="2"></rect>
                                    <rect id="矩形备份" x="74.4799918" y="0" width="14.8952873" height="16.7571982" rx="2"></rect>
                                </g>
                                <g id="编组-6" transform="translate(154.990229, 73.368156)" fill="#000000" fill-rule="nonzero">
                                    <g id="编组-5">
                                        <path d="M34.929076,0 C36.0336455,-4.42175362e-15 36.929076,0.8954305 36.929076,2 C36.929076,2.43513649 36.7871637,2.85840193 36.5248646,3.20559485 L22.427,21.866 L22.4276347,21.9560624 L22.359,21.956 L22.3180747,22.0104467 L22.253,21.956 L2,21.9560624 C0.8954305,21.9560624 1.3527075e-16,21.0606319 0,19.9560624 L0,14.631435 C-1.3527075e-16,13.5268655 0.8954305,12.631435 2,12.631435 L12.066,12.631 L21.7027785,0.740785057 C22.0825239,0.27219273 22.6534592,-4.6372548e-16 23.2566053,0 L34.929076,0 Z" id="形状结合"></path>
                                        <path d="M57.3369328,7.00332395 C58.4415023,7.00332395 59.3369328,7.89875445 59.3369328,9.00332395 C59.3369328,9.57924797 59.0886605,10.1272183 58.6556692,10.5069643 L45.5392492,22.0104467 L45.102209,21.7693239 L45.1031761,22.0104467 L26.010209,22.0104467 C24.9056395,22.0104467 24.010209,21.1150162 24.010209,20.0104467 L24.010209,15.9296883 C24.010209,14.8251188 24.9056395,13.9296883 26.010209,13.9296883 L37.052209,13.9293239 L44.9714447,7.45497067 C45.328686,7.16288885 45.7759371,7.00332395 46.2373839,7.00332395 L57.3369328,7.00332395 Z" id="形状结合" transform="translate(41.810918, 14.506885) scale(-1, 1) translate(-41.810918, -14.506885) "></path>
                                    </g>
                                </g>
                            </g>
                            <path d="M221.629951,105.138558 L232.635174,105.138558 L232.635174,74.8449319 C232.635174,68.2765742 227.707968,62.9518683 221.629951,62.9518683 L135.474882,62.9518683" id="路径" stroke="#000000" stroke-width="12"></path>
                            <path d="M138.953545,76.1774721 L138.953545,93.5247343 C138.953545,100.152151 144.326128,105.524734 150.953545,105.524734 L215.05071,105.524734 L215.05071,105.524734" id="路径-14" stroke="#000000" stroke-width="13"></path>
                        </g>
                    </g>
                </g>
            </g>
        </g>
    </g>
</svg>