<?xml version="1.0" encoding="UTF-8"?>
<svg width="48px" height="48px" viewBox="0 0 48 48" version="1.1" xmlns="http://www.w3.org/2000/svg" xmlns:xlink="http://www.w3.org/1999/xlink">
    <title>配送管理</title>
    <defs>
        <linearGradient x1="100%" y1="76.0173241%" x2="0%" y2="23.9826759%" id="linearGradient-1">
            <stop stop-color="#3130F4" offset="0%"></stop>
            <stop stop-color="#1378FF" offset="100%"></stop>
        </linearGradient>
        <linearGradient x1="100%" y1="71.8154375%" x2="0%" y2="28.1845625%" id="linearGradient-2">
            <stop stop-color="#3130F4" offset="0%"></stop>
            <stop stop-color="#1378FF" offset="100%"></stop>
        </linearGradient>
        <linearGradient x1="100%" y1="50.5545297%" x2="0%" y2="49.4454703%" id="linearGradient-3">
            <stop stop-color="#3130F4" offset="0%"></stop>
            <stop stop-color="#1378FF" offset="100%"></stop>
        </linearGradient>
    </defs>
    <g id="页面-1" stroke="none" stroke-width="1" fill="none" fill-rule="evenodd">
        <g id="组件库" transform="translate(-68.000000, -247.000000)" fill-rule="nonzero">
            <g id="编组-11" transform="translate(68.000000, 247.000000)">
                <g id="编组" transform="translate(3.000000, 8.000000)">
                    <g transform="translate(21.000000, 17.850000) scale(-1, 1) translate(-21.000000, -17.850000) translate(0.000000, 0.000000)">
                        <path d="M7.41098091,3.31966147 L14.5915365,3.31966147 C15.4982039,3.31966147 16.2332031,2.58466227 16.2332031,1.6779948 C16.2332031,0.771327331 15.4982039,0.036328125 14.5915365,0.036328125 L7.41098091,0.036328125 C6.50508052,0.036328125 5.77070317,0.770705522 5.77070317,1.67660591 C5.77070317,2.58250629 6.50508052,3.31688366 7.41098091,3.31688369 L7.41098091,3.31966147 Z" id="路径" stroke="#05D9C7" fill="#05D9C7"></path>
                        <path d="M39.8054253,22.6946615 L40.2443143,22.6946615 C41.1502147,22.6946615 41.884592,21.9602841 41.884592,21.0543837 C41.884592,20.1484833 41.1502147,19.4141059 40.2443143,19.4141059 L14.1054253,19.4141059 L14.1054253,6.80299478 C14.1054253,5.89786145 13.3716698,5.16410591 12.4665365,5.16410591 L7.92764756,5.16410591 C7.29478214,5.16410591 6.71847327,5.5284908 6.44709199,6.10021699 L1.69709199,16.0779948 C1.62209199,16.2363281 0.008203125,19.7418836 1.89709199,23.0363281 C0.691270582,24.3966174 0.0261351685,26.1518634 0.0276449851,27.9696615 C0.0307092166,32.0879662 3.36767763,35.4261774 7.48598091,35.4307726 C11.3830164,35.4266195 14.6219784,32.4271326 14.9248698,28.5418837 L27.0887587,28.5418837 C27.3916501,32.4271326 30.6306121,35.4266195 34.527645,35.4307726 C38.6459508,35.4261774 41.9829193,32.0879662 41.9859809,27.9696615 C41.9859809,25.9779948 41.2109809,24.1057726 39.8026476,22.6946615 L39.8054253,22.6946615 Z" id="形状" fill="url(#linearGradient-1)"></path>
                        <path d="M25.0748698,16.950217 C25.6665364,17.4307726 26.4304253,17.6974393 27.2276476,17.6974393 L38.2887587,17.6974393 C39.0859809,17.6974393 39.8498698,17.4307726 40.4415365,16.9474393 C41.1165365,16.3974393 41.5054253,15.6029948 41.5054253,14.7696615 L41.5054253,9.06966147 C41.5054253,8.23632813 41.1165365,7.44188369 40.4415365,6.88910591 C39.8310382,6.40021611 39.0708654,6.13636257 38.2887587,6.14179877 L27.2276476,6.14179877 C26.4304253,6.14179877 25.6665364,6.40855034 25.0748698,6.89188369 C24.4103907,7.42056492 24.0195737,8.22056639 24.0109809,9.06966147 L24.0109809,14.7696615 C24.0109809,15.6029948 24.3998698,16.3974393 25.0748698,16.950217 L25.0748698,16.950217 Z" id="形状" fill="url(#linearGradient-2)"></path>
                        <path d="M34.5304253,32.1474393 C32.2248698,32.1474393 30.3526476,30.2724393 30.3526476,27.9696615 C30.3580151,26.2821575 31.3767588,24.7631188 32.9359673,24.1176988 C34.4951758,23.4722787 36.2894941,23.8268763 37.4859809,25.0168837 C38.676339,26.2137296 39.0307563,28.0087165 38.3846259,29.5681741 C37.7384955,31.1276317 36.2184343,32.1459656 34.5304253,32.150217 L34.5304253,32.1474393 Z" id="路径" fill="#05D9C7"></path>
                        <path d="M3.30820312,27.9696615 C3.31357063,26.2821575 4.33231432,24.7631188 5.89152286,24.1176988 C7.4507314,23.4722787 9.24504962,23.8268763 10.4415365,25.0168837 C11.6315438,26.2133706 11.9861414,28.0076887 11.3407213,29.5668973 C10.6953013,31.1261058 9.1762626,32.1448495 7.48875869,32.150217 C5.18042534,32.1474393 3.30820312,30.2724393 3.30820312,27.9696615 Z" id="路径" fill="#05D9C7"></path>
                        <path d="M7.48598091,26.3807726 C6.90195742,26.3568751 6.35182206,26.6550097 6.05298524,27.1573553 C5.75414842,27.6597009 5.7546949,28.2854268 6.05440873,28.7872496 C6.35412255,29.2890724 6.90477784,29.5862457 7.48875869,29.5613281 C8.3412096,29.5256934 9.01394754,28.8242457 9.01394754,27.9710503 C9.01394754,27.1178549 8.3412096,26.4164073 7.48875869,26.3807726 L7.48598091,26.3807726 Z M7.48598091,28.725217 C7.21600116,28.7252856 6.96650022,28.5812926 6.83149053,28.3474947 C6.69648085,28.1136968 6.69648085,27.8256261 6.83149053,27.5918282 C6.96650022,27.3580303 7.21600116,27.2140373 7.48598091,27.2141059 C7.9031877,27.214212 8.2413444,27.5524546 8.2413444,27.9696615 C8.2413444,28.3868683 7.9031877,28.7251109 7.48598091,28.725217 Z M34.5304253,26.3807726 C33.9464019,26.3568751 33.3962665,26.6550097 33.0974297,27.1573553 C32.7985928,27.6597009 32.7991393,28.2854268 33.0988532,28.7872496 C33.398567,29.2890724 33.9492223,29.5862457 34.5332031,29.5613281 C35.3856285,29.5249565 36.0577622,28.822919 36.0570176,27.9697183 C36.0562719,27.1165176 35.382913,26.4156552 34.5304253,26.3807726 L34.5304253,26.3807726 Z M34.5304253,28.725217 C34.2604456,28.7252856 34.0109447,28.5812926 33.875935,28.3474947 C33.7409253,28.1136968 33.7409253,27.8256261 33.875935,27.5918282 C34.0109447,27.3580303 34.2604456,27.2140373 34.5304253,27.2141059 C34.9476321,27.214212 35.2857888,27.5524546 35.2857888,27.9696615 C35.2857888,28.3868683 34.9476321,28.7251109 34.5304253,28.725217 Z" id="形状" fill="url(#linearGradient-3)"></path>
                    </g>
                </g>
            </g>
        </g>
    </g>
</svg>