<?xml version="1.0" encoding="UTF-8"?>
<svg width="48px" height="48px" viewBox="0 0 48 48" version="1.1" xmlns="http://www.w3.org/2000/svg" xmlns:xlink="http://www.w3.org/1999/xlink">
    <title>编组 3</title>
    <defs>
        <linearGradient x1="100%" y1="78.125%" x2="0%" y2="21.875%" id="linearGradient-1">
            <stop stop-color="#3130F4" offset="0%"></stop>
            <stop stop-color="#1378FF" offset="100%"></stop>
        </linearGradient>
    </defs>
    <g id="页面-1" stroke="none" stroke-width="1" fill="none" fill-rule="evenodd">
        <g id="组件库" transform="translate(-192.000000, -59.000000)">
            <g id="编组-3" transform="translate(192.000000, 59.000000)">
                <g id="编组-3" transform="translate(2.000000, 4.000000)">
                    <rect id="矩形" fill="url(#linearGradient-1)" x="0" y="0" width="44" height="33" rx="4"></rect>
                    <path d="M34.4346167,13.1945656 L28.5856762,19.0448746 C26.6441073,20.969662 23.5588773,20.969662 21.6173083,19.0448746 L18.8967436,16.324061 C18.1754376,15.6112872 17.0315974,15.6112872 16.3102913,16.324061 L10.9895893,21.6453228 L8.8,19.4535564 L14.117965,14.1294954 C16.0598791,12.2028984 19.1471558,12.2028984 21.0890699,14.1294954 L23.8068976,16.8503089 C24.5285514,17.5648876 25.6744331,17.5648876 26.3960869,16.8503089 C30.2945194,12.9509639 32.2441662,11.000861 32.2450274,11 L34.4346167,13.1945656 Z" id="路径" stroke="#00DDC7" stroke-width="0.5" fill="#05D9C7" fill-rule="nonzero"></path>
                    <path d="M24.4444444,33 L24.4436667,36 L28.3111111,36 C29.4156806,36 30.3111111,36.8954305 30.3111111,38 C30.3111111,39.1045695 29.4156806,40 28.3111111,40 L16.6666667,40 C15.5620972,40 14.6666667,39.1045695 14.6666667,38 C14.6666667,36.8954305 15.5620972,36 16.6666667,36 L20.5326667,36 L20.5333333,33 L24.4444444,33 Z" id="形状结合" fill="#00DDC7"></path>
                </g>
            </g>
        </g>
    </g>
</svg>