<?xml version="1.0" encoding="UTF-8"?>
<svg width="48px" height="48px" viewBox="0 0 48 48" version="1.1" xmlns="http://www.w3.org/2000/svg" xmlns:xlink="http://www.w3.org/1999/xlink">
    <title>编组 8</title>
    <defs>
        <linearGradient x1="100%" y1="64.9304093%" x2="0%" y2="35.0695907%" id="linearGradient-1">
            <stop stop-color="#3130F4" offset="0%"></stop>
            <stop stop-color="#1378FF" offset="100%"></stop>
        </linearGradient>
        <linearGradient x1="100%" y1="58.6225362%" x2="0%" y2="41.3774638%" id="linearGradient-2">
            <stop stop-color="#3130F4" offset="0%"></stop>
            <stop stop-color="#1378FF" offset="100%"></stop>
        </linearGradient>
    </defs>
    <g id="页面-1" stroke="none" stroke-width="1" fill="none" fill-rule="evenodd">
        <g id="组件库" transform="translate(-440.000000, -247.000000)" fill-rule="nonzero">
            <g id="编组-8" transform="translate(440.000000, 247.000000)">
                <g id="编组" transform="translate(3.000000, 5.000000)">
                    <g transform="translate(0.000000, 0.000000)">
                        <path d="M40.9404481,11.9204393 C40.9377534,11.9008123 40.9338645,11.8813678 40.928803,11.8622141 C40.9117954,11.7764221 40.8862431,11.692548 40.8525281,11.6118459 L37.3590178,2.91416985 C36.755805,1.1167588 35.0847426,-1.77635684e-15 32.9828139,-1.77635684e-15 L8.4577896,-1.77635684e-15 C6.39836529,-1.77635684e-15 4.7971731,1.09579772 4.21725038,2.82741433 L0.461144592,11.7003481 C0.439426025,11.7687799 0.42154251,11.8383701 0.407577425,11.9087943 C0.137380791,12.7359058 6.24242794e-07,13.6005756 6.24242794e-07,14.4707018 C-0.00117892521,17.4987777 1.66934967,20.2801552 4.34301674,21.7016858 C5.44405474,22.292089 6.74247604,22.5902019 8.1998521,22.5902019 L8.20451008,22.5902019 C10.6192218,22.5902019 12.9100282,21.5211349 14.4608047,19.6702096 C15.9969323,21.5132465 18.2727373,22.578214 20.672002,22.5767516 C23.0712666,22.5752893 25.3457717,21.5075484 26.8796515,19.6626403 C28.4340558,21.515926 30.731667,22.5825978 33.1505024,22.5738989 C34.6387378,22.5651651 35.9587024,22.2536604 37.0708032,21.6422961 C39.705661,20.2037976 41.3434032,17.440052 41.3398786,14.4380957 C41.3409054,13.5830195 41.2060834,12.7332088 40.9404481,11.9204393 L40.9404481,11.9204393 Z" id="形状" fill="url(#linearGradient-1)"></path>
                        <path d="M38.2503894,25.3050176 C38.2508536,24.9095532 38.0939616,24.5301525 37.8143258,24.2505168 C37.5346901,23.970881 37.1552894,23.813989 36.759825,23.8144532 C36.6124303,23.8205703 36.4669663,23.8502528 36.3289587,23.9023732 C35.2226805,24.339062 33.8113023,24.574874 32.7457817,24.5166488 C30.3969783,24.3914647 28.6065543,23.9233343 26.8819247,22.4548955 C25.1561286,23.9242527 22.9672755,24.73765 20.7007405,24.7518785 C18.3577596,24.7373222 16.1754802,24.1498302 14.465407,22.6965299 C12.7454354,24.163222 10.5497642,24.8770626 8.2108591,24.8770626 L8.20212533,24.8770626 C6.77444412,24.8770626 5.96919003,24.6063156 4.66960416,24.1259579 C4.63371096,24.1104973 4.59697016,24.097084 4.5595586,24.0857825 C4.4966754,24.0619102 4.44893077,24.0456071 4.38488308,24.0217348 C4.27496049,24.0022969 4.16391567,23.9898505 4.05241738,23.9844707 L4.04950611,23.9844707 C3.65408828,23.984933 3.27508376,24.1426154 2.99602757,24.4227638 C2.71697139,24.7029122 2.56077064,25.0825297 2.56184739,25.4779463 L2.57233353,33.4658576 C2.57650808,35.5720703 4.28510558,37.2772773 6.39132248,37.2772773 L34.4407164,37.2592275 C36.546583,37.2509073 38.2505812,35.5437878 38.2550474,33.4379095 L38.2503894,25.3050176 Z" id="路径" fill="url(#linearGradient-2)"></path>
                        <path d="M26.5362369,12.3144621 L14.5572311,12.3144621 C13.7340151,12.3144621 13.0666667,11.6471137 13.0666667,10.8238977 C13.0666667,10.0006817 13.7340151,9.33333333 14.5572311,9.33333333 L26.5362369,9.33333333 C27.3594529,9.33333333 28.0268013,10.0006817 28.0268013,10.8238977 C28.0268013,11.6471137 27.3594529,12.3144621 26.5362369,12.3144621 Z" id="路径" fill="#05D9C7"></path>
                    </g>
                </g>
            </g>
        </g>
    </g>
</svg>