<?xml version="1.0" encoding="UTF-8"?>
<svg width="48px" height="48px" viewBox="0 0 48 48" version="1.1" xmlns="http://www.w3.org/2000/svg" xmlns:xlink="http://www.w3.org/1999/xlink">
    <title>门户管理</title>
    <defs>
        <linearGradient x1="100%" y1="98.2245199%" x2="0%" y2="1.77548014%" id="linearGradient-1">
            <stop stop-color="#3130F4" offset="0%"></stop>
            <stop stop-color="#1378FF" offset="100%"></stop>
        </linearGradient>
    </defs>
    <g id="页面-1" stroke="none" stroke-width="1" fill="none" fill-rule="evenodd">
        <g id="组件库" transform="translate(-316.000000, -247.000000)" fill-rule="nonzero">
            <g id="编组-9" transform="translate(316.000000, 247.000000)">
                <g id="编组" transform="translate(5.000000, 5.000000)">
                    <path d="M2.94664638,8.796042 L34.9558633,8.796042 C35.7276316,8.796042 36.4677941,8.49695414 37.0135205,7.96454565 C37.559247,7.43213716 37.8658336,6.71003173 37.8658336,5.95708706 L37.8658336,2.83895494 C37.8658336,2.08601027 37.559247,1.36390485 37.0135205,0.831496356 C36.4677941,0.299087866 35.7276316,0 34.9558633,0 L2.94664638,0 C1.33953707,0 0.0367175603,1.27104342 0.0367175603,2.83895494 L0.0367175603,5.95708706 C0.0367175603,7.52499858 1.33953707,8.796042 2.94664638,8.796042 L2.94664638,8.796042 Z M2.94664638,36.9845052 L14.9986261,36.9845052 C16.6057354,36.9845052 17.9085549,35.6358523 17.9085549,33.9722046 L17.9085549,28.9968058 C17.9085549,27.3331581 16.6057354,25.9845052 14.9986261,25.9845052 L2.94664638,25.9845052 C1.33953707,25.9845052 0.0367175603,27.3331581 0.0367175603,28.9968058 L0.0367175603,33.9722046 C0.0367175603,35.6358523 1.33953707,36.9845052 2.94664638,36.9845052 Z M34.9559048,37.1514375 C35.7276731,37.1514375 36.4678355,36.8719894 37.013562,36.3745416 C37.5592884,35.8770939 37.865875,35.2024057 37.865875,34.4989034 L37.865875,15.8039717 C37.865875,15.1004693 37.5592884,14.4257812 37.013562,13.9283334 C36.4678355,13.4308857 35.7276731,13.1514375 34.9559048,13.1514375 L25.3289003,13.1514375 C23.721791,13.1514375 22.4189715,14.3390175 22.4189715,15.8039717 L22.4189715,34.4988656 C22.4189715,35.9638198 23.721791,37.1514375 25.3289003,37.1514375 L34.9558633,37.1514375 L34.9559048,37.1514375 Z" id="形状" fill="url(#linearGradient-1)"></path>
                    <path d="M17.0563004,22.267987 C17.6020215,21.7030919 17.9085549,20.9369345 17.9085549,20.1380693 L17.9085549,16.0137347 C17.9085549,14.3502304 16.6057354,13.0016937 14.9986261,13.0016937 L2.94664638,13.0016937 C1.33953707,13.0016937 0.0367175603,14.3502304 0.0367175603,16.0137347 L0.0367175603,20.1393561 C0.0367175603,21.8028604 1.33953707,23.1513971 2.94664638,23.1513971 L14.9986261,23.1513971 C15.7704087,23.1502389 16.5105793,22.8328821 17.0563004,22.267987 Z" id="路径" fill="#05D9C7"></path>
                </g>
            </g>
        </g>
    </g>
</svg>