<?xml version="1.0" encoding="UTF-8"?>
<svg width="48px" height="48px" viewBox="0 0 48 48" version="1.1" xmlns="http://www.w3.org/2000/svg" xmlns:xlink="http://www.w3.org/1999/xlink">
    <title>编组 5</title>
    <defs>
        <linearGradient x1="100%" y1="100%" x2="0%" y2="0%" id="linearGradient-1">
            <stop stop-color="#3130F4" offset="0%"></stop>
            <stop stop-color="#1378FF" offset="100%"></stop>
        </linearGradient>
    </defs>
    <g id="页面-1" stroke="none" stroke-width="1" fill="none" fill-rule="evenodd">
        <g id="组件库" transform="translate(-440.000000, -61.000000)" fill-rule="nonzero">
            <g id="编组-5" transform="translate(440.000000, 61.000000)">
                <g id="门店管理" transform="translate(4.000000, 4.000000)">
                    <path d="M29.3750161,40 L23.4440455,40 C22.5445718,39.9991482 21.8156166,39.2696213 21.8147655,38.369442 L21.8147655,26.5636047 C21.8147655,26.4441198 21.8147655,26.3313301 21.8183678,26.2231755 L18.1795051,26.2231755 C18.1795051,26.3318451 18.1831074,26.4441197 18.1831075,26.5636047 L18.1831075,38.369442 C18.1822563,39.2696213 17.4533011,39.9991482 16.5538274,40 L10.6233715,40 C7.29636716,40 4.58999199,37.0643776 4.58999195,33.452017 L4.58999195,23.9266948 L4.1782977,23.9266948 C2.41521701,23.9266948 0.965023936,23.0259222 0.299623082,21.5169093 C-0.244842572,20.2808578 -0.181029965,18.2841195 1.63042483,16.3975959 L15.5611296,1.8961362 C16.7200604,0.684934513 18.3230206,-7.10542736e-15 19.9986792,-7.10542736e-15 C21.6743377,-7.10542736e-15 23.2772979,0.684934513 24.4362287,1.8961362 L38.3849451,16.4120165 C40.1809614,18.2933899 40.2432301,20.2793127 39.7008229,21.5107291 C39.0318197,23.0212871 37.5836852,23.9220596 35.8211191,23.9220596 L35.4094248,23.9220596 L35.4094248,33.452017 C35.4094248,37.0643776 32.7015058,40 29.3750161,40 Z M17.6551095,24.6775961 L22.3427634,24.6775961 C22.4617825,24.6775517 22.5806414,24.6863311 22.6983643,24.7038622 L23.2798825,24.7924459 L23.3503851,25.3733901 C23.3704294,25.6217908 23.3750699,25.871196 23.3642798,26.1201713 L23.3642798,26.137167 C23.3617067,26.2736477 23.3591336,26.4147636 23.3591336,26.5625747 L23.3591336,38.369442 C23.3591336,38.4166588 23.3973804,38.4549356 23.4445602,38.4549356 L29.3750161,38.4549356 C31.8503278,38.4549356 33.8645421,36.210472 33.8645421,33.452017 L33.8645421,22.3816304 L35.8200898,22.3816304 C36.9867285,22.3816304 37.862608,21.8527033 38.2871677,20.8916732 C38.6293886,20.1134758 38.5383012,18.8048062 37.255359,17.4683255 L37.2399204,17.4523599 L23.323625,2.96686587 C22.4557549,2.05845155 21.2545144,1.54462129 19.9986792,1.54462129 C18.7428439,1.54462129 17.5416034,2.05845155 16.6737333,2.96686587 L2.74199933,17.4688405 C1.45905709,18.8048062 1.36796971,20.1145058 1.71276365,20.8942484 C2.13577951,21.8532184 3.01165907,22.3821454 4.17881233,22.3821454 L6.13436008,22.3821454 L6.13436008,33.452017 C6.13436008,36.210987 8.14805966,38.4549356 10.6238861,38.4549356 L16.5538274,38.4549356 C16.6010071,38.4549356 16.6392539,38.4166588 16.6392539,38.369442 L16.6392539,26.5636047 C16.6392539,26.4147636 16.6366809,26.2726176 16.6341077,26.1351069 L16.6341077,26.1181112 C16.6234229,25.8701645 16.6280633,25.6217938 16.6480025,25.3744202 L16.7169612,24.7919309 L17.2948771,24.7038622 C17.4141151,24.6859763 17.5345402,24.6771956 17.6551095,24.6775961 Z M23.5289575,38.2844635 L23.5289575,26.5636047 C23.5289575,26.4157936 23.5315305,26.2803429 23.5341037,26.1515876 L23.5341037,26.1335618 C23.5474837,25.4490983 23.5423375,25.0489266 23.2834848,24.7852356 C23.0971931,24.5951927 22.8069487,24.5102142 22.3422488,24.5102141 L17.6551095,24.5102141 C17.1919535,24.5102141 16.9001652,24.5951926 16.7138735,24.7852356 C16.4565646,25.0489266 16.4503892,25.4490983 16.4632546,26.1330468 C16.4632546,26.2623172 16.4689154,26.4090983 16.4689154,26.5661799 L16.4689154,38.2844635 L10.6233715,38.2844635 C9.37542322,38.2844635 8.23914704,37.7179399 7.42399238,36.6951072 C6.70111985,35.767984 6.30714504,34.6264453 6.30418398,33.4504719 L6.30418398,22.2961368 C6.30418483,22.2491204 6.26625074,22.2109265 6.21927205,22.2106432 L4.17675386,22.2106432 C3.0811325,22.2106432 2.26083165,21.7182827 1.86663441,20.8247205 C1.71224905,20.4703857 1.32268335,19.1921024 2.86447837,17.5862654 L16.796727,3.08532079 C17.6324687,2.21046438 18.7892832,1.7156094 19.9986792,1.7156094 C21.2080751,1.7156094 22.3648896,2.21046438 23.2006313,3.08532079 L37.1333945,17.5862654 C38.674675,19.1910723 38.288197,20.4703857 38.1327824,20.8221454 C37.7365267,21.7182827 36.9162258,22.2127033 35.8216337,22.2127033 L33.7791155,22.2127033 C33.7322199,22.2127033 33.6942036,22.2507495 33.6942036,22.2976819 L33.6942036,33.453047 C33.6912425,34.6290204 33.2972677,35.7705591 32.5743952,36.6976823 C31.7592405,37.7199999 30.623479,38.2844635 29.3750161,38.2844635 L23.5289575,38.2844635 Z" id="形状结合" stroke="url(#linearGradient-1)" stroke-width="0.3" fill="url(#linearGradient-1)"></path>
                    <path d="M16.2645594,22.8795156 L23.790201,22.8795156 C24.5633996,22.8795156 25.190201,23.5063169 25.190201,24.2795156 L25.190201,40.1483399 L25.190201,40.1483399 L14.8645594,40.1483399 L14.8645594,24.2795156 C14.8645594,23.5063169 15.4913607,22.8795156 16.2645594,22.8795156 Z" id="矩形" fill="#05D9C7"></path>
                </g>
            </g>
        </g>
    </g>
</svg>