<?xml version="1.0" encoding="UTF-8"?>
<svg width="48px" height="48px" viewBox="0 0 48 48" version="1.1" xmlns="http://www.w3.org/2000/svg" xmlns:xlink="http://www.w3.org/1999/xlink">
    <title>编组 10</title>
    <defs>
        <linearGradient x1="7.48466321%" y1="-510.280953%" x2="93.7643523%" y2="520.503566%" id="linearGradient-1">
            <stop stop-color="#FFDB02" offset="0%"></stop>
            <stop stop-color="#FFB533" offset="100%"></stop>
        </linearGradient>
        <linearGradient x1="100%" y1="99.9803456%" x2="0%" y2="0.0196544142%" id="linearGradient-2">
            <stop stop-color="#3130F4" offset="0%"></stop>
            <stop stop-color="#1378FF" offset="100%"></stop>
        </linearGradient>
    </defs>
    <g id="页面-1" stroke="none" stroke-width="1" fill="none" fill-rule="evenodd">
        <g id="组件库" transform="translate(-192.000000, -247.000000)" fill-rule="nonzero">
            <g id="编组-10" transform="translate(192.000000, 247.000000)">
                <g id="编组-3" transform="translate(4.000000, 4.000000)">
                    <g id="Group-3" stroke-linejoin="round" fill="url(#linearGradient-2)" stroke="url(#linearGradient-2)" stroke-width="2">
                        <path d="M19.9796389,0.873691434 C30.5560468,0.873691434 39.1299508,9.44790314 39.1299508,20.0244335 C39.1299508,30.601106 30.5558162,39.1751724 19.9792118,39.1751724 L4.22423646,39.1751724 L4.22423646,30.925377 L4.08259742,30.7150306 C0.13104122,24.8419044 -0.25848614,17.2679228 3.06972548,11.0202997 C6.39792152,4.77280904 12.9008582,0.870826596 19.9796389,0.873691434 Z" id="Fill-1"></path>
                    </g>
                    <path d="M25.9767834,17.8049754 C24.3200154,17.8049754 22.9766502,19.1480741 22.9766502,20.8048422 C22.9766502,22.4616102 24.3200154,23.804709 25.9767834,23.804709 C27.6335516,23.804709 28.9766502,22.4616102 28.9766502,20.8048422 C28.9766502,20.00925 28.660584,19.2461499 28.0980298,18.6835958 C27.5354758,18.1209751 26.7723756,17.8049754 25.9767834,17.8049754 Z M14.4894102,17.8049754 C12.8326238,17.8049754 11.4893104,19.148089 11.4893104,20.8048755 C11.4893104,22.461662 12.8326238,23.8047756 14.4894102,23.8047756 C16.1461966,23.8047756 17.4893104,22.461662 17.4893104,20.8048755 C17.4893104,20.0092744 17.1733072,19.2461659 16.6107468,18.6836055 C16.0481198,18.1209786 15.2850112,17.8049754 14.4894102,17.8049754 Z" id="Fill-4" fill="#05D9C7"></path>
                </g>
            </g>
        </g>
    </g>
</svg>