<?xml version="1.0" encoding="UTF-8"?>
<svg width="48px" height="48px" viewBox="0 0 48 48" version="1.1" xmlns="http://www.w3.org/2000/svg" xmlns:xlink="http://www.w3.org/1999/xlink">
    <title>编组</title>
    <defs>
        <linearGradient x1="100%" y1="83.1260141%" x2="0%" y2="16.8739859%" id="linearGradient-1">
            <stop stop-color="#3130F4" offset="0%"></stop>
            <stop stop-color="#1378FF" offset="100%"></stop>
        </linearGradient>
    </defs>
    <g id="页面-1" stroke="none" stroke-width="1" fill="none" fill-rule="evenodd">
        <g id="组件库" transform="translate(-67.000000, -59.000000)">
            <g id="编组" transform="translate(67.000000, 59.000000)">
                <g transform="translate(3.000000, 2.000000)" id="编组-4">
                    <path d="M29.6175711,0 C30.5406144,0 31.2888889,0.796734161 31.2888889,1.77955556 C31.2888889,7.81688698 26.6923457,12.7111111 21.0222222,12.7111111 C15.3520988,12.7111111 10.7555556,7.81688698 10.7555556,1.77955556 C10.7555556,0.796734161 11.50383,0 12.4268734,0 C13.3499167,0 14.0981912,0.796734161 14.0981912,1.77955556 C14.0981912,5.85124419 17.1981855,9.152 21.0222222,9.152 C24.846259,9.152 27.9462532,5.85124419 27.9462532,1.77955556 C27.9462532,0.796734161 28.6945277,0 29.6175711,0 Z" id="路径" stroke="#05D9C7" stroke-width="0.5" fill="#05D9C7" fill-rule="nonzero" transform="translate(21.022222, 6.355556) scale(1, -1) translate(-21.022222, -6.355556) "></path>
                    <path d="M8.66509799,9.77777778 L33.3793465,9.77777778 C35.4792391,9.77777778 37.4351657,11.449248 37.7497701,13.5111111 L42.006443,40.2666667 C42.3479024,42.3285297 40.3502625,44 37.54285,44 L4.50159445,44 C1.6941819,44 -0.303457925,42.3285297 0.0380014656,40.2666667 L4.29467432,13.5111111 C4.60927879,11.449248 6.5652053,9.77777778 8.66509799,9.77777778 Z" id="矩形" fill="url(#linearGradient-1)"></path>
                    <g id="编组-3" transform="translate(8.800000, 16.622222)" fill="#05D9C7">
                        <circle id="椭圆形" transform="translate(2.933333, 2.933333) scale(1, -1) translate(-2.933333, -2.933333) " cx="2.93333333" cy="2.93333333" r="2.93333333"></circle>
                        <circle id="椭圆形备份" transform="translate(21.511111, 2.933333) scale(1, -1) translate(-21.511111, -2.933333) " cx="21.5111111" cy="2.93333333" r="2.93333333"></circle>
                    </g>
                    <path d="M15.9714778,30.3111111 C16.6354036,32.7749485 18.6955312,34.5385025 21.0069918,34.5385025 C23.2993162,34.5385025 25.3001879,32.9092003 25.9980009,30.5660091 L26.0634012,30.3293443 L28.3555556,31.0361968 C27.4389991,34.6280137 24.4497529,37.1555556 21.0069918,37.1555556 C17.7056922,37.1555556 14.7958461,34.7352586 13.7644935,31.3191478 L13.6888889,31.05443 L15.9714778,30.3111111 Z" id="路径备份" stroke="#05D9C7" stroke-width="0.5" fill="#05D9C7" fill-rule="nonzero"></path>
                </g>
            </g>
        </g>
    </g>
</svg>