<?xml version="1.0" encoding="UTF-8"?>
<svg width="48px" height="48px" viewBox="0 0 48 48" version="1.1" xmlns="http://www.w3.org/2000/svg" xmlns:xlink="http://www.w3.org/1999/xlink">
    <title>编组 6</title>
    <defs>
        <linearGradient x1="100%" y1="85.5876676%" x2="0%" y2="14.4123324%" id="linearGradient-1">
            <stop stop-color="#3130F4" offset="0%"></stop>
            <stop stop-color="#1378FF" offset="100%"></stop>
        </linearGradient>
        <linearGradient x1="100%" y1="64.1538997%" x2="0%" y2="35.8461003%" id="linearGradient-2">
            <stop stop-color="#3130F4" offset="0%"></stop>
            <stop stop-color="#1378FF" offset="100%"></stop>
        </linearGradient>
    </defs>
    <g id="页面-1" stroke="none" stroke-width="1" fill="none" fill-rule="evenodd">
        <g id="组件库" transform="translate(-314.000000, -61.000000)" fill-rule="nonzero">
            <g id="编组-6" transform="translate(314.000000, 61.000000)">
                <g id="编组-4" transform="translate(5.000000, 4.000000)">
                    <path d="M9.06838445,7.95333682 C3.99106555,11.0441811 0,16.3611681 0,25.6967762 C0,35.5293936 9.96249743,39.9395992 19.4318182,39.9395992 C28.9011389,39.9395992 38.8636364,35.5293936 38.8636364,25.6967762 C38.8636364,16.3611681 33.4369291,10.3192843 28.6953468,7.15210743" id="路径备份-2" stroke="url(#linearGradient-1)" stroke-width="2" fill="url(#linearGradient-1)"></path>
                    <path d="M14.9479668,19.4751672 C15.6548337,20.0069526 16.867388,20.2890157 18.5856297,20.321356 C20.3038715,20.3536962 22.0253283,20.1268566 23.7500003,19.6408369 C23.2734381,21.8679814 23.0465984,23.5894382 23.0694813,24.8052077 C23.0923644,26.020977 23.3744273,27.2335313 23.9156703,28.4428705 C23.2088033,27.911085 21.9962491,27.6290219 20.2780073,27.5966817 C18.5597656,27.5643412 16.8383088,27.7911809 15.1136367,28.2772005 C15.590199,26.0500562 15.8170387,24.3285994 15.7941558,23.1128299 C15.7712727,21.8970606 15.4892098,20.6845062 14.9479668,19.4751672 Z" id="矩形备份-3" fill="#05D9C7" transform="translate(19.431819, 23.959019) rotate(45.000000) translate(-19.431819, -23.959019) "></path>
                    <path d="M19.11634,11.7341383 C27.0315436,11.7341383 31.3690355,5.19571462 29.5332378,0.965806605 C29.0337404,-0.185097807 29.087757,-0.179033088 24.9661254,0.54897453 C24.7578333,0.585765384 24.5614077,0.619524855 24.368501,0.6515435 C22.5291375,0.956841152 20.9048103,1.11664114 19.11634,1.11664114 C17.300725,1.11664114 15.7003936,0.946495611 13.9414244,0.622662439 C13.7662441,0.590411041 13.5885314,0.556507714 13.4018462,0.519863764 C9.87137366,-0.173122904 9.78497795,-0.172822707 9.12198191,0.517974439 C8.93754491,0.710145384 8.7397963,0.962153893 8.52782073,1.28183696 C6.0973018,4.94733393 10.9162237,11.7341383 19.11634,11.7341383 Z" id="椭圆形" stroke="url(#linearGradient-2)" stroke-width="2" fill="url(#linearGradient-2)"></path>
                </g>
            </g>
        </g>
    </g>
</svg>