<?xml version="1.0" encoding="UTF-8"?>
<svg width="48px" height="48px" viewBox="0 0 48 48" version="1.1" xmlns="http://www.w3.org/2000/svg" xmlns:xlink="http://www.w3.org/1999/xlink">
    <title>编组 20</title>
    <defs>
        <linearGradient x1="100%" y1="74.5068364%" x2="0%" y2="25.4931636%" id="linearGradient-1">
            <stop stop-color="#3130F4" offset="0%"></stop>
            <stop stop-color="#1378FF" offset="100%"></stop>
        </linearGradient>
    </defs>
    <g id="页面-1" stroke="none" stroke-width="1" fill="none" fill-rule="evenodd">
        <g id="组件库" transform="translate(-684.000000, -247.000000)" fill-rule="nonzero">
            <g id="编组-20" transform="translate(684.000000, 247.000000)">
                <g id="编组" transform="translate(4.000000, 4.000000)">
                    <path d="M9.46874998,18 L8,18 L8,13.4140625 C8,12.6367187 7.36328126,12 6.58593751,12 L5.41406249,12 C4.63671874,12 4,12.6367187 4,13.4140625 L4,18 L2.53124998,18 C1.13281249,18 0,19.1328125 0,20.53125 L0,31.4726562 C0,32.8710937 1.13281249,34.0039062 2.53124998,34.0039063 L4,34.0039063 L4,38.5898437 C4,39.3671875 4.63671874,40.0039062 5.41406249,40.0039062 L6.58593751,40.0039062 C7.36328126,40.0039062 8,39.3671875 8,38.5898437 L8,34 L9.46874998,34 C10.8671875,34 12,32.8671875 12,31.46875 L12,20.53125 C12,19.1328125 10.8671875,18 9.46874998,18 Z M37.46875,18 L36,18 L36,13.4140625 C36,12.6367187 35.3632813,12 34.5859375,12 L33.4140625,12 C32.6367187,12 32,12.6367187 32,13.4140625 L32,18 L30.53125,18 C29.1328125,18 28,19.1328125 28,20.53125 L28,31.4726562 C28,32.8710937 29.1328125,34.0039062 30.53125,34.0039063 L32,34.0039063 L32,38.5898437 C32,39.3671875 32.6367187,40.0039062 33.4140625,40.0039062 L34.5859375,40.0039062 C35.3632813,40.0039062 36,39.3671875 36,38.5898437 L36,34 L37.46875,34 C38.8671875,34 40,32.8671875 40,31.46875 L40,20.53125 C40,19.1328125 38.8671875,18 37.46875,18 Z" id="形状" fill="url(#linearGradient-1)"></path>
                    <path d="M23.8085937,6 L22,6 L22,1.41406249 C22,0.636718736 21.3632812,0 20.5859375,0 L19.4140625,0 C18.6367188,0 18,0.636718736 18,1.41406249 L18,6 L16.1914062,6 C14.9804687,6 14,6.98046873 14,8.19140623 L14,19.8085937 C14,21.0195312 14.9804687,22 16.1914062,22 L18,22 L18,26.5859375 C18,27.3632813 18.6367187,28 19.4140625,28 L20.5859375,28 C21.3632812,28 22,27.3632813 22,26.5859375 L22,22 L23.8085937,22 C25.0195312,22 26,21.0195312 26,19.8085937 L26,8.19140623 C26,6.98046873 25.0195312,6 23.8085937,6 Z" id="路径" fill="#05D9C7"></path>
                </g>
            </g>
        </g>
    </g>
</svg>