<?xml version="1.0" encoding="UTF-8"?>
<svg width="48px" height="48px" viewBox="0 0 48 48" version="1.1" xmlns="http://www.w3.org/2000/svg" xmlns:xlink="http://www.w3.org/1999/xlink">
    <title>编组 19</title>
    <defs>
        <linearGradient x1="100%" y1="93.9547914%" x2="0%" y2="6.04520856%" id="linearGradient-1">
            <stop stop-color="#3130F4" offset="0%"></stop>
            <stop stop-color="#1378FF" offset="100%"></stop>
        </linearGradient>
    </defs>
    <g id="页面-1" stroke="none" stroke-width="1" fill="none" fill-rule="evenodd">
        <g id="组件库" transform="translate(-564.000000, -247.000000)">
            <g id="编组-19" transform="translate(564.000000, 247.000000)">
                <g id="编组" transform="translate(3.000000, 3.000000)">
                    <path d="M32.3441405,15.6279389 C33.0619817,16.9364609 33.4680748,18.4377747 33.4680748,20.0334333 C33.4680748,22.3387292 32.6189711,24.4471316 31.2161042,26.0632999 C31.0315164,26.2724994 31.0069047,26.5801457 31.1422691,26.8180588 L32.7502335,29.6032829 C32.8855979,29.8370941 33.1440207,29.9601526 33.4106475,29.923235 C33.6567645,29.8904194 33.9069835,29.8740116 34.1613044,29.8740116 C37.0367714,29.8945214 39.4118005,32.3228758 39.374883,35.1942409 C39.3379654,38.0533001 37.0203636,40.3585961 34.1613044,40.3793692 C31.2530217,40.3996156 28.8738907,38.0368923 28.8738907,35.1286097 C28.8738907,33.5657667 29.5589163,32.1628998 30.6418312,31.1989415 L29.1241096,28.5736934 C28.9518277,28.2742511 28.5785503,28.1634984 28.2668021,28.3111686 C27.0649307,28.8936455 25.7112871,29.2218015 24.2797065,29.2218015 C23.1844859,29.2218015 22.1343866,29.0290099 21.1622245,28.6803441 C20.8627821,28.5736934 20.5305241,28.69265 20.3705481,28.9674806 L19.3491625,30.7354211 C19.222002,30.9569264 19.2343079,31.2317571 19.3819781,31.4409566 C19.9972706,32.31057 20.3541403,33.3729751 20.3459364,34.5215211 C20.3172227,37.3723764 17.9873151,39.6981821 15.1364597,39.7227938 C12.1994634,39.7474055 9.81212848,37.3559686 9.84084213,34.4148704 C9.87365773,31.5558112 12.2199732,29.2259035 15.0831344,29.2218015 C15.5753684,29.2218015 16.0552966,29.2874327 16.510613,29.4145932 C16.7977495,29.4966322 17.1053958,29.3694717 17.2571679,29.1110489 L18.1472911,27.5687156 C18.2990633,27.3061908 18.2498399,26.9698309 18.0283346,26.7647334 C16.6500793,25.484925 15.6697132,23.7867176 15.280028,21.8752089 C15.2184987,21.5675626 14.951872,21.3460573 14.6360218,21.3460573 L10.8622277,21.3460573 C10.5791932,21.3460573 10.3248722,21.5306451 10.2387313,21.8013738 C9.54960367,23.8974703 7.57656566,25.4069879 5.25075995,25.4069879 C2.33837537,25.4069879 -0.0202459518,23.0360608 0,20.1195742 C0.0166715993,17.2235974 2.40400657,14.877282 5.29998335,14.9059956 C7.52324031,14.9265054 9.41834127,16.3334743 10.1607942,18.3024103 C10.2551391,18.5567312 10.5012561,18.7208092 10.7719848,18.7208092 L14.6319199,18.7208092 C14.9436681,18.7208092 15.2143968,18.5034059 15.275926,18.1998616 C15.7271405,15.9766046 16.9782353,14.0445861 18.7215641,12.7196562 C18.9840889,12.5186607 19.057924,12.1535871 18.893846,11.8664506 L18.8036031,11.7105765 C18.6600349,11.4644595 18.3811023,11.341401 18.1021697,11.3947263 C17.7411981,11.4685614 17.3638186,11.505479 16.9782353,11.4972751 C14.12738,11.4562556 11.7728606,9.03200306 11.8097782,6.18114773 C11.8466957,3.2974768 14.2053171,0.975773034 17.1012938,1 C19.9439453,1.02499644 22.269751,3.3384963 22.3107705,6.17704578 C22.3271783,7.47326202 21.8759638,8.6669295 21.1088991,9.58986828 C20.9325152,9.80316969 20.9038016,10.102612 21.0432679,10.3405252 L21.3139966,10.8081475 C21.4616668,11.0624684 21.7570072,11.1896288 22.0400418,11.1157937 C22.757883,10.9353079 23.5085399,10.8409631 24.2797065,10.8409631 C26.4250265,10.8409631 28.3980645,11.5752121 29.9650094,12.8098991 C30.2275342,13.0149966 30.6008117,12.9944869 30.8346228,12.7606757 L31.8272948,11.7680038 C32.0200864,11.5752121 32.0734118,11.2839737 31.9626591,11.0378567 C31.6632168,10.3774427 31.4991387,9.64319363 31.4991387,8.87202701 C31.4991387,5.97194828 33.8495562,3.62153086 36.7496349,3.62153086 C39.6456117,3.62153086 42.000131,5.97605023 42.000131,8.87202701 C42.000131,11.7721057 39.6497136,14.1225232 36.7496349,14.1225232 C35.9005312,14.1225232 35.1006509,13.9215276 34.3910136,13.5646579 C34.1366927,13.4374975 33.8290464,13.4826189 33.6239489,13.6836145 L32.4589951,14.8526703 C32.2538976,15.0577678 32.2046742,15.3736179 32.3441405,15.6279389 Z" id="路径" fill="url(#linearGradient-1)" fill-rule="nonzero"></path>
                    <circle id="椭圆形" fill="#05D9C7" cx="17" cy="6" r="6"></circle>
                </g>
            </g>
        </g>
    </g>
</svg>