<?xml version="1.0" encoding="UTF-8"?>
<svg width="48px" height="48px" viewBox="0 0 48 48" version="1.1" xmlns="http://www.w3.org/2000/svg" xmlns:xlink="http://www.w3.org/1999/xlink">
    <title>编组 31</title>
    <defs>
        <linearGradient x1="99.9976166%" y1="100%" x2="0.00238338114%" y2="0%" id="linearGradient-1">
            <stop stop-color="#3130F4" offset="0%"></stop>
            <stop stop-color="#1378FF" offset="100%"></stop>
        </linearGradient>
    </defs>
    <g id="页面-1" stroke="none" stroke-width="1" fill="none" fill-rule="evenodd">
        <g id="V2.1-导购中心-导购配置（商品返利）" transform="translate(-12.000000, -579.000000)" fill-rule="nonzero">
            <g id="编组-31" transform="translate(12.000000, 579.000000)">
                <g id="编组" transform="translate(3.000000, 3.000000)">
                    <path d="M36.225,0.00100105587 L5.86250001,0.00100105587 C2.68921109,-0.057587337 0.0669874856,2.46287833 0,5.63600106 L0,28.7185011 C0.0366308613,30.2348255 0.675578752,31.6741444 1.77564368,32.7183851 C2.8757086,33.7626258 4.34632361,34.3258174 5.86250001,34.2835011 L8.33,34.2835011 L21,42.0010011 L21,34.2835011 L36.3475,34.2835011 C37.8264952,34.2742651 39.2409761,33.6766557 40.2785631,32.6226512 C41.3161501,31.5686467 41.8914819,30.144959 41.8775,28.666001 L42,5.63600106 C41.9861989,4.12142139 41.368835,2.67490836 40.2847613,1.61711524 C39.2006876,0.559322122 37.7394623,-0.0223640293 36.225,0.00100105587 Z" id="路径" fill="url(#linearGradient-1)"></path>
                    <path d="M29.75,23.6085011 C27.965,25.9418344 25.0133333,27.1085011 20.895,27.1085011 C16.765,27.1085011 13.7725,25.8835011 12.04,23.6085011 C10.6200054,21.3941303 10.0829159,18.7274181 10.535,16.1360011 C9.92428951,15.5158665 9.7431928,14.5908379 10.0749675,13.7861891 C10.4067421,12.9815402 11.1871872,12.4529768 12.0575,12.4435011 C12.64368,12.4294113 13.2109774,12.6512399 13.6321171,13.0592189 C14.0532567,13.467198 14.2929785,14.0271692 14.2975,14.6135011 C14.2682541,15.4683293 13.7510512,16.2305229 12.9675,16.5735011 C12.6084974,18.5092578 12.976128,20.5094175 14,22.1910011 C15.19,23.8360011 17.5,24.763501 20.8425,24.763501 C24.1849999,24.763501 26.5125,23.888501 27.8425,22.1560011 C28.9021159,20.5002229 29.336468,18.520818 29.0675,16.5735011 C28.0482382,16.1765376 27.4837681,15.0830109 27.750541,14.0222061 C28.0173139,12.9614012 29.0319221,12.2649838 30.1177122,12.3974022 C31.2035023,12.5298205 32.0209969,13.4496735 32.025007,14.5435011 C32.0264166,15.0924337 31.8128375,15.6200999 31.43,16.0135011 C31.8279392,18.6657926 31.2294453,21.3714836 29.75,23.6085011 L29.75,23.6085011 Z" id="路径" fill="#05D9C7"></path>
                </g>
            </g>
        </g>
    </g>
</svg>